# xmcd
#
# Track frame offsets:
#	150
#	24013
#	46619
#	75971
#	99593
#	131109
#	141375
#	168332
#	178810
#	201835
#	221929
#	235508
#
# Disc length: 3503 seconds
#
# Revision: 0
# Processed by: cddbd v1.5.1PL2 Copyright (c) Steve Scherf et al.
# Submitted via: MusicManager 7.0.6.0 
#
DISCID=9b0dad0c
DTITLE=Lightnin' Hopkins - Lightnin' hopkins
DYEAR=2001
DGENRE=blues
TTITLE0=Early In the Mornin' Blues
TTITLE1=Get Off My Toe
TTITLE2=You Treat Po' Lightnin' Wrong
TTITLE3=I've Been Bucked And Scorned
TTITLE4=Cadillac
TTITLE5=Coffee House Blues
TTITLE6=I Heard My Children Crying
TTITLE7=Wonder What Is Wrong With Me
TTITLE8=I'm Gonna Meet My Baby Somewhere
TTITLE9=Don't Treat Taht Man The Way You Treat Me
TTITLE10=Stool Pigeon Blues
TTITLE11=There's Good Rockin' Tonight
EXTD=
EXTT0=
EXTT1=
EXTT2=
EXTT3=
EXTT4=
EXTT5=
EXTT6=
EXTT7=
EXTT8=
EXTT9=
EXTT10=
EXTT11=
PLAYORDER=
